<svg xmlns="http://www.w3.org/2000/svg" xmlns:svg="http://www.w3.org/2000/svg" id="svg2" width="72" height="72" version="1.1"><metadata id="metadata8"/><rect id="rect2838" width="72" height="72" x="0" y="0" fill="#ed1d24" fill-opacity="1" fill-rule="nonzero" stroke="none" stroke-width="0" color="#000" display="inline" enable-background="accumulate" overflow="visible" visibility="visible" style="marker:none"/><g id="g2853" transform="matrix(2,0,0,2,-80.5,0.5)"><path d="m 41.5,3 0,4 5.5,0 0,14.75 4,0 0,-14.75 5.5,0 0,-4 -15,0 z" style="marker:none" id="rect2820" fill="#85d2dc" fill-opacity="1" fill-rule="nonzero" stroke="none" stroke-width="0" color="#000" display="inline" enable-background="accumulate" overflow="visible" visibility="visible"/><path id="path2849" fill="#fec429" fill-opacity="1" fill-rule="nonzero" stroke="none" stroke-width="0" d="m 59.5,3 0,18.75 10.5,0 c 2.761425,0 5,-2.397148 5,-5.34375 0,-2.046916 -1.10213,-3.792764 -2.6875,-4.6875 C 73.337503,10.803117 74,9.4825678 74,8 74,5.2385762 71.761425,2.9999999 69,3 l -9.5,0 z m 4,4 5,0 C 69.328427,7 70,7.6715729 70,8.5 70,9.3284271 69.328427,10 68.5,10 l -5,0 0,-3 z m 5,6.5 c 1.531158,0 2.5,1.338709 2.5,2.5 0,1.429282 -1.418445,2 -2.5,2 l -5,0 0,-4.5 5,0 z" color="#000" display="inline" enable-background="accumulate" overflow="visible" visibility="visible" style="marker:none"/><path d="m 51.09375,13.5 5.875,9.03125 L 50.5,32.5 l 5.9375,0 3.5,-5.375 3.5,5.375 5.9375,0 -6.46875,-9.96875 5.875,-9.03125 -5.9375,0 -2.90625,4.46875 -2.90625,-4.46875 -5.9375,0 z" style="marker:none" id="rect2820-8-5" fill="#2c419b" fill-opacity="1" fill-rule="nonzero" stroke="none" stroke-width="0" color="#000" display="inline" enable-background="accumulate" overflow="visible" visibility="visible"/></g></svg>