<svg xmlns="http://www.w3.org/2000/svg" xmlns:svg="http://www.w3.org/2000/svg" xmlns:xlink="http://www.w3.org/1999/xlink" id="svg2408" width="96" height="96" display="inline" version="1.0"><defs id="defs2410"><linearGradient id="linearGradient3593" x1="61.295" x2="117.361" y1="121.328" y2="18.868" gradientUnits="userSpaceOnUse" xlink:href="#linearGradient3951"/><filter id="filter3963" color-interpolation-filters="sRGB"><feGaussianBlur id="feGaussianBlur3965" stdDeviation=".916"/></filter><linearGradient id="linearGradient3951"><stop id="stop3953" offset="0" stop-color="#000" stop-opacity="1"/><stop id="stop3955" offset="1" stop-color="#000" stop-opacity="0"/></linearGradient><linearGradient id="linearGradient3595" x1="61.295" x2="104.63" y1="121.328" y2="41.347" gradientUnits="userSpaceOnUse" xlink:href="#linearGradient3951"/><filter id="filter3457" width="2.867" height="1.275" x="-.933" y="-.138" color-interpolation-filters="sRGB"><feGaussianBlur id="feGaussianBlur3459" stdDeviation=".928"/></filter><filter id="filter3451" width="3.07" height="1.271" x="-1.035" y="-.136" color-interpolation-filters="sRGB"><feGaussianBlur id="feGaussianBlur3453" stdDeviation=".95"/></filter><linearGradient id="linearGradient3439"><stop id="stop3441" offset="0" stop-color="#3d3d3d" stop-opacity="1"/><stop id="stop3443" offset="1" stop-color="#fff" stop-opacity="1"/></linearGradient><linearGradient id="linearGradient3558" x1="137" x2="139.031" y1="106" y2="106" gradientUnits="userSpaceOnUse" spreadMethod="repeat" xlink:href="#linearGradient3439"/><linearGradient id="linearGradient3556" x1="142.958" x2="148.958" y1="98.951" y2="98.951" gradientTransform="translate(0.04225159,12.549439)" gradientUnits="userSpaceOnUse" spreadMethod="reflect" xlink:href="#linearGradient3355"/><linearGradient id="linearGradient3554" x1="142.958" x2="148.958" y1="98.951" y2="98.951" gradientTransform="translate(0.04225159,11.549439)" gradientUnits="userSpaceOnUse" spreadMethod="reflect" xlink:href="#linearGradient3339"/><linearGradient id="linearGradient3552" x1="142.958" x2="148.958" y1="98.951" y2="98.951" gradientTransform="translate(0.04225159,10.549439)" gradientUnits="userSpaceOnUse" spreadMethod="reflect" xlink:href="#linearGradient3355"/><linearGradient id="linearGradient3550" x1="142.958" x2="148.958" y1="98.951" y2="98.951" gradientTransform="translate(0.04225159,9.5494389)" gradientUnits="userSpaceOnUse" spreadMethod="reflect" xlink:href="#linearGradient3339"/><linearGradient id="linearGradient3548" x1="142.958" x2="148.958" y1="98.951" y2="98.951" gradientTransform="translate(0.04225159,4.5494389)" gradientUnits="userSpaceOnUse" spreadMethod="reflect" xlink:href="#linearGradient3355"/><linearGradient id="linearGradient3546" x1="142.958" x2="148.958" y1="98.951" y2="98.951" gradientTransform="translate(0.04225159,3.5494389)" gradientUnits="userSpaceOnUse" spreadMethod="reflect" xlink:href="#linearGradient3339"/><linearGradient id="linearGradient3355"><stop id="stop3357" offset="0" stop-color="#fff" stop-opacity="1"/><stop id="stop3359" offset=".7" stop-color="#fff" stop-opacity=".498"/><stop id="stop3361" offset="1" stop-color="#fff" stop-opacity="0"/></linearGradient><linearGradient id="linearGradient3544" x1="142.958" x2="148.958" y1="98.951" y2="98.951" gradientTransform="translate(0.04225159,2.5494389)" gradientUnits="userSpaceOnUse" spreadMethod="reflect" xlink:href="#linearGradient3355"/><linearGradient id="linearGradient3542" x1="142.958" x2="148.958" y1="98.951" y2="98.951" gradientTransform="translate(0.04225159,1.5494389)" gradientUnits="userSpaceOnUse" spreadMethod="reflect" xlink:href="#linearGradient3339"/><linearGradient id="linearGradient3461"><stop id="stop3463" offset="0" stop-color="#444542" stop-opacity="1"/><stop id="stop3465" offset="1" stop-color="#71746e" stop-opacity="1"/></linearGradient><linearGradient id="linearGradient3540" x1="136" x2="150" y1="106" y2="106" gradientUnits="userSpaceOnUse" xlink:href="#linearGradient3461"/><linearGradient id="linearGradient3401"><stop id="stop3403" offset="0" stop-color="#404040" stop-opacity="1"/><stop id="stop3447" offset=".2" stop-color="gray" stop-opacity="1"/><stop id="stop3410" offset=".7" stop-color="#efefef" stop-opacity="1"/><stop id="stop3405" offset="1" stop-color="#dcdcdc" stop-opacity="1"/></linearGradient><linearGradient id="linearGradient3538" x1="136" x2="150" y1="106" y2="106" gradientUnits="userSpaceOnUse" xlink:href="#linearGradient3401"/><filter id="filter3390" width="2.22" height="1.299" x="-.61" y="-.149" color-interpolation-filters="sRGB"><feGaussianBlur id="feGaussianBlur3392" stdDeviation=".778"/></filter><filter id="filter3382" width="1.863" height="1.227" x="-.432" y="-.114" color-interpolation-filters="sRGB"><feGaussianBlur id="feGaussianBlur3384" stdDeviation=".739"/></filter><linearGradient id="linearGradient3536" x1="146.106" x2="146.076" y1="118.94" y2="66" gradientTransform="matrix(1,0,0,1.2653524,-29.85843,-54.364173)" gradientUnits="userSpaceOnUse" xlink:href="#linearGradient5452"/><linearGradient id="linearGradient5452"><stop id="stop5454" offset="0" stop-color="#fff" stop-opacity="1"/><stop id="stop5456" offset="1" stop-color="#fff" stop-opacity="0"/></linearGradient><linearGradient id="linearGradient3534" x1="146.106" x2="146.076" y1="118.94" y2="66" gradientTransform="matrix(1,0,0,1.2653524,-23.73343,-54.364173)" gradientUnits="userSpaceOnUse" xlink:href="#linearGradient5452"/><linearGradient id="linearGradient3308"><stop id="stop3310" offset="0" stop-color="#da8539" stop-opacity="1"/><stop id="stop3312" offset="1" stop-color="#fadfc7" stop-opacity="1"/></linearGradient><linearGradient id="linearGradient3532" x1="136.988" x2="148.995" y1="17.043" y2="17.043" gradientTransform="translate(-23.73343,0)" gradientUnits="userSpaceOnUse" xlink:href="#linearGradient3308"/><linearGradient id="linearGradient3394"><stop id="stop3396" offset="0" stop-color="#000" stop-opacity="1"/><stop id="stop3402" offset=".5" stop-color="#7d7d7d" stop-opacity="1"/><stop id="stop3398" offset="1" stop-color="#000" stop-opacity="1"/></linearGradient><linearGradient id="linearGradient3530" x1="141.25" x2="144.813" y1="4.922" y2="4.922" gradientTransform="translate(-23.73343,0)" gradientUnits="userSpaceOnUse" xlink:href="#linearGradient3394"/><linearGradient id="linearGradient3254"><stop id="stop3256" offset="0" stop-color="#000" stop-opacity="1"/><stop id="stop3266" offset=".066" stop-color="#000" stop-opacity="1"/><stop id="stop3264" offset=".07" stop-color="#ad5f1b" stop-opacity="1"/><stop id="stop3268" offset=".191" stop-color="#ad601a" stop-opacity="1"/><stop id="stop3262" offset=".21" stop-color="#785800" stop-opacity="1"/><stop id="stop3258" offset="1" stop-color="#785700" stop-opacity="1"/></linearGradient><linearGradient id="linearGradient3528" x1="143" x2="143" y1="0" y2="120.018" gradientTransform="translate(-23.73343,0)" gradientUnits="userSpaceOnUse" xlink:href="#linearGradient3254"/><linearGradient id="linearGradient3278"><stop id="stop3280" offset="0" stop-color="#945a00" stop-opacity="1"/><stop id="stop3290" offset=".25" stop-color="#e28e0a" stop-opacity="1"/><stop id="stop3286" offset=".3" stop-color="#ffba14" stop-opacity="1"/><stop id="stop3288" offset=".7" stop-color="#f3ac00" stop-opacity="1"/><stop id="stop3292" offset=".75" stop-color="#ffd314" stop-opacity="1"/><stop id="stop3282" offset="1" stop-color="#ffed94" stop-opacity="1"/></linearGradient><linearGradient id="linearGradient3526" x1="136" x2="150" y1="60" y2="60" gradientTransform="translate(-23.73343,0)" gradientUnits="userSpaceOnUse" xlink:href="#linearGradient3278"/><linearGradient id="linearGradient3339"><stop id="stop3341" offset="0" stop-color="#000" stop-opacity="1"/><stop id="stop3347" offset=".7" stop-color="#000" stop-opacity=".498"/><stop id="stop3343" offset="1" stop-color="#000" stop-opacity="0"/></linearGradient><linearGradient id="linearGradient3524" x1="137.406" x2="148.531" y1="116.469" y2="116.469" gradientTransform="matrix(1.0893815,0,0,1,-13.275943,0)" gradientUnits="userSpaceOnUse" xlink:href="#linearGradient3339"/><filter id="filter3509" width="1.367" height="1.353" x="-.183" y="-.177" color-interpolation-filters="sRGB"><feGaussianBlur id="feGaussianBlur3511" stdDeviation=".659"/></filter><filter id="filter3495" width="1.857" height="1.333" x="-.429" y="-.167" color-interpolation-filters="sRGB"><feGaussianBlur id="feGaussianBlur3497" stdDeviation=".552"/></filter><linearGradient id="linearGradient3485"><stop id="stop3487" offset="0" stop-color="#e6605b" stop-opacity="1"/><stop id="stop3489" offset="1" stop-color="#f08682" stop-opacity="1"/></linearGradient><linearGradient id="linearGradient3522" x1="136.414" x2="149.53" y1="115.494" y2="115.494" gradientUnits="userSpaceOnUse" xlink:href="#linearGradient3485"/><linearGradient id="linearGradient3597"><stop id="stop3599" offset="0" stop-color="#dcdcdc" stop-opacity="1"/><stop id="stop3601" offset="1" stop-color="#f5f5f5" stop-opacity="1"/></linearGradient><linearGradient id="linearGradient3737"><stop id="stop3739" offset="0" stop-color="#fff" stop-opacity="1"/><stop id="stop3741" offset="1" stop-color="#fff" stop-opacity="0"/></linearGradient><linearGradient id="linearGradient3188" x1="36.357" x2="36.357" y1="6" y2="63.893" gradientUnits="userSpaceOnUse" xlink:href="#linearGradient3737"/><linearGradient id="linearGradient3646" x1="48" x2="48" y1="90" y2="5.988" gradientUnits="userSpaceOnUse" xlink:href="#linearGradient3597"/><linearGradient id="linearGradient3737-6"><stop id="stop3739-6" offset="0" stop-color="#fff" stop-opacity="1"/><stop id="stop3741-4" offset="1" stop-color="#fff" stop-opacity="0"/></linearGradient><radialGradient id="radialGradient2855" cx="48" cy="90.172" r="42" fx="48" fy="90.172" gradientTransform="matrix(1.1573129,0,0,0.99590774,-7.551021,0.1971319)" gradientUnits="userSpaceOnUse" xlink:href="#linearGradient3737-6"/><filter id="filter4135" color-interpolation-filters="sRGB"><feGaussianBlur id="feGaussianBlur4137" stdDeviation="2.52"/></filter><linearGradient id="linearGradient2998" x1="61.295" x2="117.361" y1="121.328" y2="18.868" gradientUnits="userSpaceOnUse" xlink:href="#linearGradient3951"/><linearGradient id="linearGradient3000" x1="61.295" x2="104.63" y1="121.328" y2="41.347" gradientUnits="userSpaceOnUse" xlink:href="#linearGradient3951"/><linearGradient id="linearGradient3002" x1="136.414" x2="149.53" y1="115.494" y2="115.494" gradientUnits="userSpaceOnUse" xlink:href="#linearGradient3485"/><linearGradient id="linearGradient3004" x1="137.406" x2="148.531" y1="116.469" y2="116.469" gradientTransform="matrix(1.0893815,0,0,1,-13.275943,0)" gradientUnits="userSpaceOnUse" xlink:href="#linearGradient3339"/><linearGradient id="linearGradient3006" x1="136" x2="150" y1="60" y2="60" gradientTransform="translate(-23.73343,0)" gradientUnits="userSpaceOnUse" xlink:href="#linearGradient3278"/><linearGradient id="linearGradient3008" x1="143" x2="143" y1="0" y2="120.018" gradientTransform="translate(-23.73343,0)" gradientUnits="userSpaceOnUse" xlink:href="#linearGradient3254"/><linearGradient id="linearGradient3010" x1="141.25" x2="144.813" y1="4.922" y2="4.922" gradientTransform="translate(-23.73343,0)" gradientUnits="userSpaceOnUse" xlink:href="#linearGradient3394"/><linearGradient id="linearGradient3012" x1="136.988" x2="148.995" y1="17.043" y2="17.043" gradientTransform="translate(-23.73343,0)" gradientUnits="userSpaceOnUse" xlink:href="#linearGradient3308"/><linearGradient id="linearGradient3014" x1="146.106" x2="146.076" y1="118.94" y2="66" gradientTransform="matrix(1,0,0,1.2653524,-23.73343,-54.364173)" gradientUnits="userSpaceOnUse" xlink:href="#linearGradient5452"/><linearGradient id="linearGradient3016" x1="146.106" x2="146.076" y1="118.94" y2="66" gradientTransform="matrix(1,0,0,1.2653524,-29.85843,-54.364173)" gradientUnits="userSpaceOnUse" xlink:href="#linearGradient5452"/><linearGradient id="linearGradient3018" x1="136" x2="150" y1="106" y2="106" gradientUnits="userSpaceOnUse" xlink:href="#linearGradient3401"/><linearGradient id="linearGradient3020" x1="136" x2="150" y1="106" y2="106" gradientUnits="userSpaceOnUse" xlink:href="#linearGradient3461"/><linearGradient id="linearGradient3022" x1="142.958" x2="148.958" y1="98.951" y2="98.951" gradientTransform="translate(0.04225159,1.5494389)" gradientUnits="userSpaceOnUse" spreadMethod="reflect" xlink:href="#linearGradient3339"/><linearGradient id="linearGradient3024" x1="142.958" x2="148.958" y1="98.951" y2="98.951" gradientTransform="translate(0.04225159,2.5494389)" gradientUnits="userSpaceOnUse" spreadMethod="reflect" xlink:href="#linearGradient3355"/><linearGradient id="linearGradient3026" x1="142.958" x2="148.958" y1="98.951" y2="98.951" gradientTransform="translate(0.04225159,3.5494389)" gradientUnits="userSpaceOnUse" spreadMethod="reflect" xlink:href="#linearGradient3339"/><linearGradient id="linearGradient3028" x1="142.958" x2="148.958" y1="98.951" y2="98.951" gradientTransform="translate(0.04225159,4.5494389)" gradientUnits="userSpaceOnUse" spreadMethod="reflect" xlink:href="#linearGradient3355"/><linearGradient id="linearGradient3030" x1="142.958" x2="148.958" y1="98.951" y2="98.951" gradientTransform="translate(0.04225159,9.5494389)" gradientUnits="userSpaceOnUse" spreadMethod="reflect" xlink:href="#linearGradient3339"/><linearGradient id="linearGradient3032" x1="142.958" x2="148.958" y1="98.951" y2="98.951" gradientTransform="translate(0.04225159,10.549439)" gradientUnits="userSpaceOnUse" spreadMethod="reflect" xlink:href="#linearGradient3355"/><linearGradient id="linearGradient3034" x1="142.958" x2="148.958" y1="98.951" y2="98.951" gradientTransform="translate(0.04225159,11.549439)" gradientUnits="userSpaceOnUse" spreadMethod="reflect" xlink:href="#linearGradient3339"/><linearGradient id="linearGradient3036" x1="142.958" x2="148.958" y1="98.951" y2="98.951" gradientTransform="translate(0.04225159,12.549439)" gradientUnits="userSpaceOnUse" spreadMethod="reflect" xlink:href="#linearGradient3355"/><linearGradient id="linearGradient3038" x1="137" x2="139.031" y1="106" y2="106" gradientUnits="userSpaceOnUse" spreadMethod="repeat" xlink:href="#linearGradient3439"/></defs><metadata id="metadata2413"/><g id="layer3" display="inline"><g id="g2966" transform="translate(-28.405884,13.681964)"><path id="path3589" fill="url(#linearGradient2998)" fill-opacity="1" stroke="none" d="m 118.375,11.03125 c -0.52336,-0.06895 -1.05794,-0.0102 -1.5625,0.125 -1.00643,0.269671 -1.88554,0.918974 -2.4375,1.875 l -2.0625,3.5625 a 1.0491519,1.0491519 0 0 0 -0.84375,0.53125 l -9.5,16.46875 -36,62.34375 a 1.0491519,1.0491519 0 0 0 -0.09375,0.25 L 59.5,120.21875 A 1.0491519,1.0491519 0 0 0 61.25,121.25 L 78.875,103.71875 A 1.0491519,1.0491519 0 0 0 79.03125,103.5 l 36,-62.34375 9.5,-16.46875 a 1.0491519,1.0491519 0 0 0 0.0625,-0.90625 l 2.09375,-3.625 c 1.11127,-1.924777 0.4576,-4.419069 -1.46875,-5.53125 l -5.3125,-3.0625 c -0.47927,-0.276705 -1.00789,-0.462302 -1.53125,-0.53125 z" display="inline" filter="url(#filter3963)" opacity=".3" transform="matrix(0.81918663,0.14382202,-0.14382202,0.81918663,-1.12912,-29.602466)"/><path id="path3712" fill="url(#linearGradient3000)" fill-opacity="1" stroke="none" d="m 118.375,11.03125 c -0.52336,-0.06895 -1.05794,-0.0102 -1.5625,0.125 -1.00643,0.269671 -1.88554,0.918974 -2.4375,1.875 l -2.0625,3.5625 a 1.0491519,1.0491519 0 0 0 -0.84375,0.53125 l -9.5,16.46875 -36,62.34375 a 1.0491519,1.0491519 0 0 0 -0.09375,0.25 L 59.5,120.21875 A 1.0491519,1.0491519 0 0 0 61.25,121.25 L 78.875,103.71875 A 1.0491519,1.0491519 0 0 0 79.03125,103.5 l 36,-62.34375 9.5,-16.46875 a 1.0491519,1.0491519 0 0 0 0.0625,-0.90625 l 2.09375,-3.625 c 1.11127,-1.924777 0.4576,-4.419069 -1.46875,-5.53125 l -5.3125,-3.0625 c -0.47927,-0.276705 -1.00789,-0.462302 -1.53125,-0.53125 z" display="inline" filter="url(#filter3963)" opacity=".5" transform="matrix(0.71965782,0.41694617,-0.41694617,0.71965782,38.11804,-33.836244)"/><g id="g3643" display="inline" transform="matrix(-0.7202872,-0.41585798,0.41585798,-0.7202872,133.80148,138.7397)"><g id="g3537"><rect id="rect3483" width="12.116" height="16" x="136.914" y="107.494" fill="url(#linearGradient3002)" fill-opacity="1" stroke="#df453f" stroke-dasharray="none" stroke-linecap="butt" stroke-linejoin="round" stroke-miterlimit="4" stroke-opacity="1" stroke-width="1.202" rx="2.615" ry="2.615"/><path id="path3493" fill="#701300" fill-opacity="1" stroke="none" d="m 141.24458,118.1889 c 0,2.1967 -0.69252,3.97748 -1.5468,3.97748 -0.85427,0 -1.54679,-1.78078 -1.54679,-3.97748 0,-2.1967 0.69252,-3.97747 1.54679,-3.97747 0.85428,0 1.5468,1.78077 1.5468,3.97747 z" filter="url(#filter3495)" opacity=".3" transform="matrix(1.8857143,0,0,1,-123.51329,-1.9445437)"/><path id="path3499" fill="#fff" fill-opacity="1" fill-rule="evenodd" stroke="none" d="m 146.31251,113.125 c -0.85193,9.50672 -3.9375,8.3125 -6.5,8.9375 4.07634,0.0625 8.625,-0.0625 8.625,-0.0625 -2.4375,-0.5625 -1.8125,-2.375 -2.125,-8.875 z" filter="url(#filter3509)" opacity=".8"/><rect id="rect3525" width="12.119" height="1" x="136.412" y="115.969" fill="url(#linearGradient3004)" fill-opacity="1" stroke="none" opacity=".2"/></g><g id="g3311" transform="translate(23.73343,0)"><path id="rect2480" fill="url(#linearGradient3006)" fill-opacity="1" stroke="url(#linearGradient3008)" stroke-linecap="butt" stroke-linejoin="round" stroke-miterlimit="4" stroke-opacity="1" stroke-width="1.202" d="m 112.76657,24.500002 6.5,-23.9999996 6.5,23.9999996 0,71.999997 -13,0 0,-71.999997 z"/><path id="path3272" fill="url(#linearGradient3010)" fill-opacity="1" fill-rule="evenodd" stroke="none" d="m 117.69336,8.0716529 3.14265,0.022097 -1.58237,-5.7913293"/><path id="path3274" fill="url(#linearGradient3012)" fill-opacity="1" fill-rule="evenodd" stroke="none" d="M 117.73213,8.0901517 113.96457,22 c 0,0 -0.46779,1.653465 -0.698,2.60832 -0.19122,0.64228 1.95886,1.611283 3.0182,-1.60832 1.21534,4.513809 5.57589,3.437953 5.98831,0.01105 0.3425,1.701476 1.75396,2.949961 2.98863,1.521937 -0.23478,-0.908743 -0.43641,-1.521937 -0.43641,-1.521937 l -4.02168,-14.9208973 -3.07149,0 z"/><path id="path3294" fill="none" stroke="url(#linearGradient3014)" stroke-linecap="butt" stroke-linejoin="miter" stroke-opacity="1" stroke-width="1.202" d="m 122.37252,96.304856 0,-67.217294" opacity=".5"/><path id="path3304" fill="none" stroke="url(#linearGradient3016)" stroke-linecap="butt" stroke-linejoin="miter" stroke-opacity="1" stroke-width="1.202" d="m 116.24752,96.304856 0,-67.217294" opacity=".5"/><path id="path3372" fill="#ac4311" fill-opacity="1" fill-rule="evenodd" stroke="none" d="m 118.7044,5.9798798 -4.77297,17.8986412 1.98873,-0.839689 2.78424,-17.0589522 z" filter="url(#filter3382)" opacity=".4"/><path id="path3386" fill="none" stroke="#4d2600" stroke-linecap="butt" stroke-linejoin="miter" stroke-opacity="1" stroke-width="1.202" d="m 113.07908,24.624995 c 0,0 1.48667,1.76491 3.25,-1.53125 2,5.25 5.16858,2.087146 5.93749,-0.03125 1.375,3.4375 3.12501,1.4375 3.12501,1.4375" opacity=".15"/><path id="path3388" fill="#fff" fill-opacity="1" fill-rule="evenodd" stroke="none" d="m 144.06251,8.9374939 -0.375,12.5000011 3.0625,-0.3125 -2.6875,-12.1875011 z" filter="url(#filter3390)" opacity=".8" transform="matrix(1.122449,0,0,1.345,-41.70282,-4.7709353)"/></g><g id="g3620"><rect id="rect3333" width="13" height="19" x="136.5" y="96.5" fill="url(#linearGradient3018)" fill-opacity="1" stroke="url(#linearGradient3020)" stroke-dasharray="none" stroke-linecap="butt" stroke-linejoin="round" stroke-miterlimit="4" stroke-opacity="1" stroke-width="1.202"/><rect id="rect3337" width="12" height="1" x="137" y="100" fill="url(#linearGradient3022)" fill-opacity="1" stroke="none" opacity=".4"/><rect id="rect3351" width="12" height="1" x="137" y="101" fill="url(#linearGradient3024)" fill-opacity="1" stroke="none" opacity=".6"/><rect id="rect3369" width="12" height="1" x="137" y="102" fill="url(#linearGradient3026)" fill-opacity="1" stroke="none" opacity=".4"/><rect id="rect3371" width="12" height="1" x="137" y="103" fill="url(#linearGradient3028)" fill-opacity="1" stroke="none" opacity=".6"/><rect id="rect3379" width="12" height="1" x="137" y="108" fill="url(#linearGradient3030)" fill-opacity="1" stroke="none" opacity=".4"/><rect id="rect3381" width="12" height="1" x="137" y="109" fill="url(#linearGradient3032)" fill-opacity="1" stroke="none" opacity=".6"/><rect id="rect3385" width="12" height="1" x="137" y="110" fill="url(#linearGradient3034)" fill-opacity="1" stroke="none" opacity=".4"/><rect id="rect3387" width="12" height="1" x="137" y="111" fill="url(#linearGradient3036)" fill-opacity="1" stroke="none" opacity=".6"/><rect id="rect3437" width="12" height="4" x="137" y="104" fill="url(#linearGradient3038)" fill-opacity="1" stroke="none" opacity=".3"/><path id="path3449" fill="#000" fill-opacity="1" stroke="none" d="m 140.00001,106.07969 c 0,4.63748 -0.49306,8.39689 -1.10128,8.39689 -0.60822,0 -1.10128,-3.75941 -1.10128,-8.39689 0,-4.63748 0.49306,-8.396894 1.10128,-8.396894 0.60822,0 1.10128,3.759414 1.10128,8.396894 z" filter="url(#filter3451)" opacity=".6" transform="matrix(1.2553848,0,0,1,-35.75387,0)"/><path id="path3455" fill="#fff" fill-opacity="1" stroke="none" d="m 147.34339,106.03549 c 0,4.46662 -0.53423,8.08754 -1.19324,8.08754 -0.65901,0 -1.19325,-3.62092 -1.19325,-8.08754 0,-4.46662 0.53424,-8.087532 1.19325,-8.087532 0.65901,0 1.19324,3.620912 1.19324,8.087532 z" filter="url(#filter3457)" opacity=".8"/></g></g></g></g></svg>