<svg xmlns="http://www.w3.org/2000/svg" xmlns:pdf="http://ns.adobe.com/pdf/1.3/" xmlns:svg="http://www.w3.org/2000/svg" xmlns:x="adobe:ns:meta/" xmlns:xap="http://ns.adobe.com/xap/1.0/" xmlns:xapGImg="http://ns.adobe.com/xap/1.0/g/img/" xmlns:xapMM="http://ns.adobe.com/xap/1.0/mm/" xmlns:xlink="http://www.w3.org/1999/xlink" id="svg548" width="128" height="128" enable-background="new 0 0 256 256" overflow="visible" version="1.0" viewBox="0 0 256 256" xml:space="preserve"><defs id="defs618"><linearGradient id="XMLID_9_" x1="129" x2="129" y1="11" y2="245" gradientUnits="userSpaceOnUse"><stop id="stop555" offset="0" stop-color="#494949"/><stop id="stop556" offset="1" stop-color="#000"/></linearGradient><linearGradient id="XMLID_10_" x1="29.053" x2="226.947" y1="29.053" y2="226.947" gradientUnits="userSpaceOnUse"><stop id="stop563" offset="0" stop-color="#FFF"/><stop id="stop564" offset="1" stop-color="#DADADA"/></linearGradient><filter id="filter6679"><feGaussianBlur id="feGaussianBlur6681" stdDeviation="4.753"/></filter><radialGradient id="XMLID_11_" cx="146.019" cy="139.357" r="49.252" fx="146.019" fy="139.357" gradientUnits="userSpaceOnUse"><stop id="stop575" offset="0" stop-color="#900"/><stop id="stop576" offset="1" stop-color="#F8310E"/></radialGradient><linearGradient id="XMLID_12_" x1="75.059" x2="79.012" y1="175.886" y2="186.428" gradientUnits="userSpaceOnUse"><stop id="stop582" offset="0" stop-color="#FFF"/><stop id="stop583" offset="1" stop-color="#F8310E"/></linearGradient><linearGradient id="XMLID_13_" x1="190.086" x2="188.103" y1="156.243" y2="164.174" gradientUnits="userSpaceOnUse"><stop id="stop589" offset="0" stop-color="#FFF"/><stop id="stop590" offset="1" stop-color="#F8310E"/></linearGradient><linearGradient id="XMLID_14_" x1="-83.335" x2="-83.335" y1="43.826" y2="15.704" gradientTransform="matrix(0.9835,0.1809,-0.1809,0.9835,267.8761,169.5064)" gradientUnits="userSpaceOnUse"><stop id="stop596" offset="0" stop-color="#CF0000"/><stop id="stop597" offset="1" stop-color="#F8310E"/></linearGradient><linearGradient id="XMLID_15_" x1="133.07" x2="133.755" y1="161.585" y2="166.369" gradientUnits="userSpaceOnUse"><stop id="stop603" offset="0" stop-color="#FFF"/><stop id="stop604" offset="1" stop-color="#F8310E"/></linearGradient><linearGradient id="XMLID_16_" x1="140.348" x2="140.348" y1="45.417" y2="56.588" gradientUnits="userSpaceOnUse"><stop id="stop610" offset="0" stop-color="#FFF"/><stop id="stop611" offset="1" stop-color="#F8310E"/></linearGradient><radialGradient id="radialGradient6814" cx="146.019" cy="139.357" r="49.252" fx="146.019" fy="139.357" gradientUnits="userSpaceOnUse" xlink:href="#XMLID_11_"/><linearGradient id="linearGradient6816" x1="75.059" x2="79.012" y1="175.886" y2="186.428" gradientUnits="userSpaceOnUse" xlink:href="#XMLID_12_"/><linearGradient id="linearGradient6818" x1="190.086" x2="188.103" y1="156.243" y2="164.174" gradientUnits="userSpaceOnUse" xlink:href="#XMLID_13_"/><linearGradient id="linearGradient6820" x1="-83.335" x2="-83.335" y1="43.826" y2="15.704" gradientTransform="matrix(0.9835,0.1809,-0.1809,0.9835,267.8761,169.5064)" gradientUnits="userSpaceOnUse" xlink:href="#XMLID_14_"/><linearGradient id="linearGradient6822" x1="133.07" x2="133.755" y1="161.585" y2="166.369" gradientUnits="userSpaceOnUse" xlink:href="#XMLID_15_"/><linearGradient id="linearGradient6824" x1="140.348" x2="140.348" y1="45.417" y2="56.588" gradientUnits="userSpaceOnUse" xlink:href="#XMLID_16_"/><linearGradient id="linearGradient2910" x1="129" x2="129" y1="11" y2="245" gradientUnits="userSpaceOnUse" xlink:href="#XMLID_9_"/><linearGradient id="linearGradient2912" x1="29.053" x2="226.947" y1="29.053" y2="226.947" gradientUnits="userSpaceOnUse" xlink:href="#XMLID_10_"/><radialGradient id="radialGradient2914" cx="146.019" cy="139.357" r="49.252" fx="146.019" fy="139.357" gradientUnits="userSpaceOnUse" xlink:href="#XMLID_11_"/><linearGradient id="linearGradient2916" x1="75.059" x2="79.012" y1="175.886" y2="186.428" gradientUnits="userSpaceOnUse" xlink:href="#XMLID_12_"/><linearGradient id="linearGradient2918" x1="190.086" x2="188.103" y1="156.243" y2="164.174" gradientUnits="userSpaceOnUse" xlink:href="#XMLID_13_"/><linearGradient id="linearGradient2920" x1="-83.335" x2="-83.335" y1="43.826" y2="15.704" gradientTransform="matrix(0.9835,0.1809,-0.1809,0.9835,267.8761,169.5064)" gradientUnits="userSpaceOnUse" xlink:href="#XMLID_14_"/><linearGradient id="linearGradient2922" x1="133.07" x2="133.755" y1="161.585" y2="166.369" gradientUnits="userSpaceOnUse" xlink:href="#XMLID_15_"/><linearGradient id="linearGradient2924" x1="140.348" x2="140.348" y1="45.417" y2="56.588" gradientUnits="userSpaceOnUse" xlink:href="#XMLID_16_"/></defs><metadata id="metadata549"><xpacket id="xpacket6">begin=&apos; &apos; id=&apos;W5M0MpCehiHzreSzNTczkc9d&apos;</xpacket><x:xmpmeta x:xmptk="XMP toolkit 3.0-29, framework 1.6"><metadata id="metadata53"/></x:xmpmeta><xpacket id="xpacket8">end=&apos;w&apos;</xpacket></metadata><g id="g2893" transform="matrix(1.0733753,0,0,1.0733753,-10.687632,-11.807137)"><path id="path551" d="m 44,15.5 c -9.374,0 -17,7.626 -17,17 l 0,200 c 0,9.374 7.626,17 17,17 l 176,0 c 9.375,0 17,-7.626 17,-17 l 0,-200 c 0,-9.374 -7.625,-17 -17,-17 l -176,0 z" opacity=".2"/><path id="path552" d="m 42,13.5 c -9.374,0 -17,7.626 -17,17 l 0,200 c 0,9.374 7.626,17 17,17 l 176,0 c 9.375,0 17,-7.626 17,-17 l 0,-200 c 0,-9.374 -7.625,-17 -17,-17 l -176,0 z" opacity=".2"/><path id="path553" d="m 40,12.5 c -9.374,0 -17,7.626 -17,17 l 0,200 c 0,9.374 7.626,17 17,17 l 176,0 c 9.375,0 17,-7.626 17,-17 l 0,-200 c 0,-9.374 -7.625,-17 -17,-17 l -176,0 z" opacity=".2"/><path id="path560" fill="url(#linearGradient2910)" d="m 41,11 c -9.374,0 -17,7.626 -17,17 l 0,200 c 0,9.374 7.626,17 17,17 l 176,0 c 9.375,0 17,-7.626 17,-17 l 0,-200 c 0,-9.374 -7.625,-17 -17,-17 L 41,11 z"/><path id="path561" fill="#fff" d="m 28,228 c 0,6.627 5.373,12 12,12 l 176,0 c 6.627,0 12,-5.373 12,-12 l 0,-200 c 0,-6.627 -5.373,-12 -12,-12 L 40,16 c -6.627,0 -12,5.373 -12,12 l 0,200 z"/><path id="path568" fill="url(#linearGradient2912)" d="m 40,21 c -3.86,0 -7,3.14 -7,7 l 0,200 c 0,3.859 3.14,7 7,7 l 176,0 c 3.859,0 7,-3.141 7,-7 l 0,-200 c 0,-3.86 -3.141,-7 -7,-7 L 40,21 z"/><g id="g6826"><path id="path3679" fill="#505050" fill-opacity="1" stroke="none" d="m 154.75,50.5625 c -2.10434,0.14307 -4.3625,0.85658 -6.5,1.875 -0.2701,0.09187 -0.54548,0.247202 -0.8125,0.375 -0.31832,0.167128 -0.62704,0.318584 -0.9375,0.5 -0.99522,0.581994 -1.67898,1.185064 -2.125,1.75 -10.26752,10.058538 -4.12708,32.634936 -0.9375,45.375 -6.529,18.1837 -14.95186,35.8374 -24.5,52.5 -3.41434,5.95309 -7.2924,12.64681 -11.625,19.1875 -15.10968,3.76004 -30.3644,8.45487 -43.6875,16.125 -4.432,2.556 -9.7715,6.3705 -10.5625,11.8125 -0.76402,5.258 6.611,8.214 10.5,9.125 17.33298,4.067 33.1415,-11.4765 43.3125,-23.3125 2.17462,-2.53184 4.25938,-5.14706 6.3125,-7.8125 4.31804,-0.96338 8.65308,-1.92537 12.8125,-2.8125 14.23612,-3.04606 29.3408,-6.02911 44.25,-6.75 0.56488,0.85212 1.16592,1.66473 1.75,2.5 4.088,5.84001 9.289,12.2465 16.75,13.4375 7.246,1.167 14.386,-4.0835 17.5,-10.3125 6.521,-13.048 -16.09,-13.581 -23.25,-13.625 -1.37284,-0.009 -2.74952,0.036 -4.125,0.0625 -1.89142,-3.26975 -3.59662,-6.58586 -5.1875,-9.75 -5.789,-11.525 -10.3085,-23.721 -14.1875,-36 -1.75326,-5.56249 -3.3214,-11.18573 -4.6875,-16.875 0.55308,-1.560342 1.0942,-3.132242 1.625,-4.6875 3.64002,-10.657998 8.114,-23.2225 7.125,-34.6875 -0.5325,-6.21625 -4.32726,-8.304942 -8.8125,-8 z m -2.8125,8.75 c 0.3698,1.207312 0.55876,3.148 0.5625,4.375 0.0256,4.073738 -0.63722,8.209636 -1.5625,12.25 -0.35616,-3.733214 -0.5142,-7.447258 -0.25,-11.1875 0.11202,-1.526 0.322,-3.03 0.75,-4.5 0.0827,-0.282132 0.322,-0.619104 0.5,-0.9375 z m -4.25,57.25 c 4.41112,15.40874 10.1726,30.8623 18.125,44.6875 -15.56476,1.40107 -31.13664,4.57389 -46.1875,8 11.21574,-16.25373 20.47938,-34.34498 28.0625,-52.6875 z m 36.5625,52 c 0.55834,0.0376 1.13078,0.0159 1.6875,0.0625 3.37,0.28099 10.121,1.1565 10.25,4.0625 0.0509,1.08881 -0.93706,3.02865 -2,3.875 -0.0638,-0.0363 -0.16012,-0.0383 -0.3125,-0.0625 -1.336,-0.21001 -2.6515,-1.2745 -3.6875,-2.0625 -2.20134,-1.67298 -4.15606,-3.67253 -5.9375,-5.875 z M 101,181 c -6.26358,8.03401 -13.48914,15.06158 -21.875,19.125 -4.648,2.25701 -10.5535,2.5005 -14.4375,-1.4375 -0.738,-0.74899 -0.448,-1.3275 -0.125,-1.8125 0.776,-1.13801 3.09,-2.6985 5.25,-3.9375 C 79.24022,187.50612 90.05042,183.88986 101,181 z" filter="url(#filter6679)"/><g id="g6806"><path id="path580" fill="url(#radialGradient2914)" d="m 142.494,49.335 c -13.958,9.451 -5.52,36.748 -2.447,49.557 5.613,23.423 14.018,48.226 27.928,68.118 4.088,5.84 9.305,12.211 16.766,13.402 7.246,1.167 14.421,-4.047 17.535,-10.276 6.521,-13.048 -16.097,-13.61 -23.257,-13.654 -21.3,-0.135 -42.961,4.086 -63.644,8.8 -18.843,4.292 -38.858,9.279 -55.74,18.998 -4.432,2.556 -9.752,6.317 -10.543,11.759 -0.764,5.258 6.598,8.241 10.487,9.152 17.333,4.067 33.111,-11.49 43.282,-23.326 22.536,-26.238 38.462,-60.081 49.56,-92.599 3.64,-10.658 8.137,-23.225 7.148,-34.69 -0.852,-9.946 -10.076,-9.328 -17.072,-5.24 -6.787,3.969 0.365,8.073 5.524,5.061 1.247,-0.729 -1.069,-0.571 -0.502,-0.003 0.696,0.7 0.966,3.67 0.971,5.306 0.049,7.808 -2.32,15.712 -4.533,23.109 -6.876,23.003 -17.124,45.325 -29.043,66.125 -9.421,16.426 -21.932,38.572 -39.771,47.216 -4.648,2.257 -10.544,2.479 -14.428,-1.459 -0.738,-0.749 -0.478,-1.354 -0.155,-1.839 0.776,-1.138 3.117,-2.655 5.277,-3.894 16.667,-9.602 37.563,-13.732 56.144,-17.695 19.274,-4.124 40.155,-8.266 59.962,-6.607 3.37,0.281 10.137,1.15 10.266,4.056 0.052,1.111 -1.01,3.091 -2.096,3.909 -1.031,0.767 0.976,0.063 -0.243,-0.131 -1.336,-0.21 -2.667,-1.265 -3.703,-2.053 -7.562,-5.747 -12.328,-15.383 -16.486,-23.653 -5.789,-11.525 -10.314,-23.693 -14.193,-35.972 -3.701,-11.742 -6.741,-23.802 -8.269,-36.03 -0.582,-4.656 -0.858,-9.374 -0.527,-14.06 0.112,-1.526 0.347,-3.03 0.775,-4.5 0.276,-0.941 1.589,-2.521 0.556,-1.823 6.48,-4.386 -0.495,-8.46 -5.524,-5.059 l -0.005,-0.005 z"/><path id="path587" fill="url(#linearGradient2916)" d="m 59.311,196.072 c -1.119,-1.136 -1.103,-2.306 -0.993,-2.908 l 0.607,-1.413 c 0.532,-0.776 1.715,-2.08 5.931,-4.5 8.327,-4.801 18.361,-8.657 31.571,-12.149 l 5.175,-1.371 c 1.555,-1.171 2.747,-2.587 3.153,-4.188 l -0.218,0.326 -0.743,0.184 c -12.719,3.169 -29.125,7.841 -43.18,15.931 -3.689,2.126 -8.688,5.483 -9.526,10.049 l -0.048,0.283 c -0.326,2.242 1.933,4.123 4.621,5.415 2.474,-1.238 4.997,-2.178 7.41,-3.114 -1.395,-0.608 -2.674,-1.442 -3.76,-2.545 z"/><path id="path594" fill="url(#linearGradient2918)" d="m 200.921,163.831 c -1.209,-1.964 -5.655,-5.275 -21.911,-5.381 l -2.145,0.082 -1.317,0.058 c 0.228,1.407 0.626,2.684 1.179,3.855 l 4.396,0.2 c 0,0 0.978,0.046 0.982,0.048 7.974,0.661 11.923,2.604 12.068,5.932 l -0.07,0.958 c -0.216,1.189 -0.912,2.536 -1.768,3.573 1.441,0.412 2.911,0.777 4.385,1.107 1.592,-1.497 2.904,-3.236 3.793,-5.008 1.13,-2.257 1.263,-4.032 0.408,-5.424 z"/><path id="path601" fill="url(#linearGradient2920)" d="m 192.336,173.156 c -0.33,0.401 -0.675,0.758 -1.036,1.033 l -1.017,0.771 c 0,0 -0.46,-0.285 -0.905,-0.571 -1.689,-0.325 -3.173,-1.448 -4.268,-2.284 -2.196,-1.668 -4.155,-3.633 -6.316,-6.288 l -1.873,-2.304 c -2.503,0.703 -5.024,1.478 -7.512,2.09 l 0.181,0.276 c 4.142,5.919 8.881,11.534 15.462,12.592 4.326,0.692 8.545,-1.28 11.669,-4.208 -1.474,-0.329 -2.944,-0.695 -4.385,-1.107 z"/><path id="path608" fill="url(#linearGradient2922)" d="m 115.943,167.171 -4.932,1.123 0.506,-0.738 c -2.572,1.314 -5.233,2.563 -7.744,3.984 -0.567,0.799 -1.303,1.538 -2.171,2.19 l 0.168,-0.045 c 2.562,-0.966 5.277,-2.127 8.247,-1.854 l 9.659,-2.095 1.896,-0.4 c 14.375,-3.075 29.666,-6.139 44.652,-6.851 l 0.18,-0.012 c -1.314,-1.734 -3.923,-2.09 -5.751,-3.099 -15.87,1.532 -31.476,4.782 -44.71,7.797 z"/><path id="path615" fill="url(#linearGradient2924)" d="m 176.033,162.417 0.693,0.028 c -0.553,-1.172 -0.951,-2.448 -1.179,-3.855 l -1.786,0.083 -0.502,-1.04 -5.344,-9.967 c -5.18,-10.31 -9.857,-22.17 -14.304,-36.264 -1.835,-5.814 -3.44,-11.556 -4.758,-17.065 l -0.138,-0.576 0.871,-2.415 0.969,-2.715 0.422,-1.238 c 2.146,-6.254 4.572,-13.342 5.845,-20.26 0.849,-4.626 1.106,-8.68 0.785,-12.39 -0.239,-2.804 -1.235,-4.677 -2.958,-5.567 -2.568,-1.335 -6.949,-0.605 -11.163,1.858 l -0.047,0.04 c -0.685,0.41 -1.155,0.809 -1.493,1.269 l -0.089,0.126 -0.114,0.108 c -2.29,2.281 -3.816,5.412 -4.533,9.308 -1.873,10.187 1.552,23.796 3.818,32.805 l 0.436,1.729 -0.204,0.561 c -6.318,17.615 -14.61,35.427 -24.64,52.931 l -0.119,0.206 c -3.384,5.901 -7.217,12.589 -11.544,19.113 l -0.202,0.312 c -0.18,0.705 -0.533,1.367 -0.982,1.997 2.51,-1.422 5.171,-2.67 7.744,-3.984 l 2.37,-3.425 c 10.43,-15.101 19.833,-32.719 27.95,-52.357 l 2.153,-5.222 1.559,5.434 c 4.974,17.385 10.873,31.878 18.026,44.305 l 1.532,2.666 -3.063,0.278 c -0.466,0.038 -0.926,0.1 -1.392,0.142 1.828,1.009 4.437,1.364 5.751,3.099 l 0.966,-0.046 1.299,2.038 0.74,1.137 c 2.487,-0.612 5.009,-1.387 7.512,-2.09 l -0.887,-1.097 m -26.918,-91.375 -0.249,1.031 -3.881,-0.252 c -0.413,-4.481 -0.49,-7.949 -0.258,-11.238 l 0,-10e-4 0.349,-2.799 0.502,-2.112 c 0,-0.003 2.764,-5.985 2.764,-5.985 l 1.472,4.95 c 0.466,1.451 0.64,3.631 0.646,5.056 0.019,2.912 -0.278,5.986 -0.907,9.405 l -0.438,1.945 z"/></g></g></g></svg>