<svg xmlns="http://www.w3.org/2000/svg" xmlns:svg="http://www.w3.org/2000/svg" xmlns:xlink="http://www.w3.org/1999/xlink" id="svg2408" width="96" height="96" display="inline" version="1.0"><defs id="defs2410"><linearGradient id="linearGradient3614"><stop id="stop3616" offset="0" stop-color="#6da014" stop-opacity="1"/><stop id="stop3618" offset="1" stop-color="#b4e844" stop-opacity="1"/></linearGradient><filter id="filter4995-9" color-interpolation-filters="sRGB"><feGaussianBlur id="feGaussianBlur4997-3" stdDeviation="1.898"/></filter><linearGradient id="linearGradient3731-5"><stop id="stop3733-5" offset="0" stop-color="#dcdcdc" stop-opacity="1"/><stop id="stop3757-1" offset=".307" stop-color="#ebebeb" stop-opacity="1"/><stop id="stop3737-9" offset=".707" stop-color="#fff" stop-opacity="1"/><stop id="stop3759-5" offset=".845" stop-color="#fafafa" stop-opacity="1"/><stop id="stop3735-7" offset="1" stop-color="#f0f0f0" stop-opacity="1"/></linearGradient><linearGradient id="linearGradient3737-9-0-7-7"><stop id="stop3739-2-6-1-3" offset="0" stop-color="#fff" stop-opacity=".333"/><stop id="stop3741-1-8-5-7" offset="1" stop-color="#fff" stop-opacity="0"/></linearGradient><filter id="filter3174-62" color-interpolation-filters="sRGB"><feGaussianBlur id="feGaussianBlur3176-4" stdDeviation="1.71"/></filter><linearGradient id="ButtonShadow-86" x1="45.448" x2="45.448" y1="92.54" y2="7.017" gradientTransform="scale(1.0058652,0.994169)" gradientUnits="userSpaceOnUse"><stop id="stop3750-0" offset="0" stop-color="#000" stop-opacity="1"/><stop id="stop3752-4" offset="1" stop-color="#000" stop-opacity=".588"/></linearGradient><filter id="filter4900-2-2-5" color-interpolation-filters="sRGB"><feGaussianBlur id="feGaussianBlur4902-9-3-3" stdDeviation=".962"/></filter><linearGradient id="linearGradient4355" x1="48.082" x2="46.655" y1="75.562" y2="16.973" gradientTransform="matrix(1.2248383,0,0,1.2248383,136.71785,-5.7975048)" gradientUnits="userSpaceOnUse" xlink:href="#linearGradient3731-5"/><linearGradient id="linearGradient4357" x1="50.631" x2="50.631" y1="61.373" y2="26.423" gradientTransform="matrix(1.1358369,0,0,1.1358369,140.98991,-1.4218893)" gradientUnits="userSpaceOnUse" xlink:href="#linearGradient3614"/><linearGradient id="linearGradient4359" x1="48" x2="48" y1="20.221" y2="138.661" gradientTransform="matrix(1.2248383,0,0,1.2248383,136.71785,-7.022894)" gradientUnits="userSpaceOnUse" xlink:href="#linearGradient3737-9-0-7-7"/></defs><metadata id="metadata2413"/><g id="layer4" display="inline"><g id="layer2-5" display="none" transform="translate(148,5.0000009)"><rect id="rect3745-4" width="86" height="85" x="5" y="7" fill="url(#ButtonShadow-86)" fill-opacity="1" fill-rule="nonzero" stroke="none" filter="url(#filter3174-62)" opacity=".9" rx="6" ry="6"/></g><g id="g4348" transform="matrix(1.0434783,0,0,1.0434783,-156.52175,-7.1739158)"><path id="path3620-9-4" fill="gray" fill-opacity="1" stroke="none" d="m -345.60002,394.72254 c -18.2254,0 -33,12.08831 -33,27 0,9.49844 5.99976,17.84346 15.0625,22.65625 -0.34463,2.50876 -1.91402,8.64982 -9.34375,10.75 9.62291,1.04582 16.0136,-3.6463 19.40625,-7.1875 2.5235,0.5055 5.16106,0.78125 7.875,0.78125 18.2254,0 33,-12.08831 33,-27 0,-14.91169 -14.7746,-27 -33,-27 z" display="inline" filter="url(#filter4995-9)" transform="matrix(1.2248383,0,0,1.2248383,619.30414,-467.22159)"/><path id="path3620-8" fill="url(#linearGradient4355)" fill-opacity="1" stroke="none" d="m 195.51009,15.024746 c -22.32317,0 -40.41967,14.806225 -40.41967,33.070634 0,11.634054 7.34874,21.855354 18.44913,27.750243 -0.4221,3.072813 -2.34435,10.594631 -11.44458,13.167012 11.78651,1.28096 19.61407,-4.46614 23.76952,-8.803525 3.09089,0.619155 6.32147,0.956905 9.6456,0.956905 22.32317,0 40.41966,-14.806226 40.41966,-33.070635 0,-18.264409 -18.09649,-33.070634 -40.41966,-33.070634 z" display="inline"/><path id="path3658-2" fill="#999" fill-opacity="1" fill-rule="nonzero" stroke="none" d="m 197.57439,29.609746 -2.67038,10.70932 7.34353,0 2.6982,-10.70932 6.14742,0 -2.69819,10.70932 7.70515,0 0,5.924896 -9.17942,0 -1.91933,7.621697 7.89987,0 0,5.980529 -9.34632,0 -2.67039,10.653687 -6.14742,0 2.67038,-10.653687 -7.34354,0 -2.67038,10.653687 -6.20304,0 2.67036,-10.653687 -7.76077,0 0,-5.980529 9.12379,0 1.94715,-7.621697 -7.87206,0 0,-5.924896 9.40194,0 2.67038,-10.70932 6.20307,0 m 3.14326,16.634216 -7.34354,0 -1.94715,7.621697 7.34353,0 1.94716,-7.621697" color="#000" display="inline" enable-background="accumulate" filter="url(#filter4900-2-2-5)" font-family="Sans" font-size="50.155" font-stretch="normal" font-style="normal" font-variant="normal" font-weight="bold" overflow="visible" text-anchor="start" visibility="visible" writing-mode="lr-tb" style="text-align:start;line-height:125%;marker:none;-inkscape-font-specification:Abandoned Bitplane Bold"/><path id="path3658" fill="url(#linearGradient4357)" fill-opacity="1" stroke="none" d="m 196.98435,28.109871 -2.67038,10.70932 7.34353,0 2.6982,-10.70932 6.14742,0 -2.69819,10.70932 7.70515,0 0,5.924896 -9.17942,0 -1.91933,7.621697 7.89987,0 0,5.980529 -9.34632,0 L 200.29449,69 l -6.14742,0 2.67038,-10.653687 -7.34354,0 L 186.80353,69 l -6.20304,0 2.67036,-10.653687 -7.76077,0 0,-5.980529 9.12379,0 1.94715,-7.621697 -7.87206,0 0,-5.924896 9.40194,0 2.67038,-10.70932 6.20307,0 m 3.14326,16.634216 -7.34354,0 -1.94715,7.621697 7.34353,0 1.94716,-7.621697" font-family="Sans" font-size="50.155" font-stretch="normal" font-style="normal" font-variant="normal" font-weight="bold" text-anchor="start" writing-mode="lr-tb" style="text-align:start;line-height:125%;-inkscape-font-specification:Abandoned Bitplane Bold"/><path d="m 195.51009,15.024305 c -22.32317,0 -40.41967,14.806225 -40.41967,33.070634 0,11.634054 7.34874,21.855354 18.44913,27.750243 -0.4221,3.072826 -2.34435,10.594631 -11.44458,13.167012 11.78651,1.28096 19.61407,-4.466128 23.76952,-8.803525 3.09089,0.619155 6.32147,0.956905 9.6456,0.956905 22.32317,0 40.41966,-14.806225 40.41966,-33.070635 0,-18.264409 -18.09649,-33.070634 -40.41966,-33.070634 z" style="marker:none" id="path3620-0-0-6" fill="url(#linearGradient4359)" fill-opacity="1" fill-rule="nonzero" stroke="none" stroke-width=".5" color="#000" display="inline" enable-background="accumulate" overflow="visible" visibility="visible"/></g></g></svg>