<svg xmlns="http://www.w3.org/2000/svg" xmlns:svg="http://www.w3.org/2000/svg" xmlns:xlink="http://www.w3.org/1999/xlink" id="svg2408" width="96" height="96" display="inline" version="1.0"><defs id="defs2410"><linearGradient id="linearGradient3183-0"><stop id="stop3185-9" offset="0" stop-color="#c80000" stop-opacity="1"/><stop id="stop3187-6" offset="1" stop-color="#f3604d" stop-opacity="1"/></linearGradient><filter id="filter3733"><feGaussianBlur id="feGaussianBlur3735" stdDeviation="1.26"/></filter><linearGradient id="linearGradient3743" x1="27" x2="69" y1="48" y2="48" gradientTransform="matrix(0,-1,1,0,160,96)" gradientUnits="userSpaceOnUse" xlink:href="#linearGradient3183-0"/></defs><metadata id="metadata2413"/><g id="layer6" display="inline"><g id="g3737" transform="matrix(1.998002,0,0,1.998002,-369.58242,-49.902098)"><path id="path3724" fill="#666" fill-opacity="1" stroke="none" d="M 188,60.666667 197.33333,70 209,58.333333 220.66667,70 230,60.666667 218.33333,49 230,37.333333 220.66667,28 209,39.666667 197.33333,28 188,37.333333 199.66667,49 188,60.666667 z" display="inline" filter="url(#filter3733)"/><path id="path2929" fill="url(#linearGradient3743)" fill-opacity="1" stroke="none" d="M 187,59.666667 196.33333,69 208,57.333333 219.66667,69 229,59.666667 217.33333,48 229,36.333333 219.66667,27 208,38.666667 196.33333,27 187,36.333333 198.66667,48 187,59.666667 z" display="inline"/><path id="path3704" fill="#fff" fill-opacity="1" stroke="none" d="M 196.34375,27 187,36.34375 l 0.5,0.5 L 196.34375,28 208,39.65625 219.65625,28 228.5,36.84375 229,36.34375 219.65625,27 208,38.65625 196.34375,27 z m 1.8125,21.5 L 187,59.65625 l 0.5,0.5 L 198.65625,49 l -0.5,-0.5 z m 19.6875,0 -0.5,0.5 11.15625,11.15625 0.5,-0.5 L 217.84375,48.5 z" display="inline" opacity=".3"/><path id="path3714" fill="#000" fill-opacity="1" stroke="none" d="m 187.5,35.84375 -0.5,0.5 11.15625,11.15625 0.5,-0.5 L 187.5,35.84375 z m 41,0 L 217.34375,47 l 0.5,0.5 L 229,36.34375 l -0.5,-0.5 z M 208,56.34375 196.34375,68 187.5,59.15625 187,59.65625 196.34375,69 208,57.34375 219.65625,69 229,59.65625 l -0.5,-0.5 L 219.65625,68 208,56.34375 z" display="inline" opacity=".1"/></g></g></svg>