<svg xmlns="http://www.w3.org/2000/svg" xmlns:svg="http://www.w3.org/2000/svg" xmlns:xlink="http://www.w3.org/1999/xlink" id="svg2408" width="96" height="96" display="inline" version="1.0"><defs id="defs2410"><linearGradient id="linearGradient3932"><stop id="stop3934" offset="0" stop-color="#000" stop-opacity="1"/><stop id="stop3936" offset="1" stop-color="#000" stop-opacity="0"/></linearGradient><linearGradient id="linearGradient3865"><stop id="stop3867" offset="0" stop-color="#ffe99d" stop-opacity="1"/><stop id="stop3869" offset="1" stop-color="#ffe99d" stop-opacity="0"/></linearGradient><linearGradient id="linearGradient3777"><stop id="stop3779" offset="0" stop-color="#f60" stop-opacity="1"/><stop id="stop3781" offset="1" stop-color="#f60" stop-opacity="0"/></linearGradient><linearGradient id="linearGradient3751"><stop id="stop3753" offset="0" stop-color="#f89400" stop-opacity="1"/><stop id="stop3755" offset="1" stop-color="#f89400" stop-opacity="0"/></linearGradient><linearGradient id="linearGradient3741"><stop id="stop3743" offset="0" stop-color="#fff" stop-opacity="1"/><stop id="stop3745" offset="1" stop-color="#fff" stop-opacity="0"/></linearGradient><linearGradient id="linearGradient3724"><stop id="stop3726" offset="0" stop-color="#ffa92a" stop-opacity="1"/><stop id="stop3728" offset="1" stop-color="#ffcf2a" stop-opacity="1"/></linearGradient><linearGradient id="linearGradient5128"><stop id="stop5130" offset="0" stop-color="#e5e5e5" stop-opacity="1"/><stop id="stop5132" offset="1" stop-color="#ababab" stop-opacity="1"/></linearGradient><linearGradient id="linearGradient3309" x1="63.999" x2="63.999" y1="3.1" y2="122.899" gradientUnits="userSpaceOnUse"><stop id="stop3311" offset="0" stop-color="#f6f6f6" stop-opacity="1"/><stop id="stop3313" offset="1" stop-color="#d2d2d2" stop-opacity="1"/></linearGradient><linearGradient id="linearGradient3076" x1="60.756" x2="69.694" y1="66.836" y2="69.231" gradientTransform="matrix(0.79896845,1.3847466,-1.383854,0.79948375,117.60682,-69.542219)" gradientUnits="userSpaceOnUse" xlink:href="#linearGradient3865"/><radialGradient id="radialGradient3078" cx="47.644" cy="54.106" r="4.862" fx="47.644" fy="54.106" gradientTransform="matrix(3.6952788,3.733339,2.0321784,-2.0140568,-228.61775,-23.082127)" gradientUnits="userSpaceOnUse" xlink:href="#linearGradient3751"/><radialGradient id="radialGradient3080" cx="48.09" cy="53.891" r="5.493" fx="48.09" fy="53.891" gradientTransform="matrix(-0.01155242,1.9830883,-2.0305783,-0.02269268,158.07483,-40.252061)" gradientUnits="userSpaceOnUse" xlink:href="#linearGradient3777"/><linearGradient id="linearGradient3082" x1="52.515" x2="54.767" y1="44.04" y2="64.308" gradientTransform="matrix(1.5979369,0,0,1.5989675,-28.642265,-30.329616)" gradientUnits="userSpaceOnUse" xlink:href="#linearGradient3741"/><linearGradient id="linearGradient3084" x1="64.67" x2="59.574" y1="71.888" y2="52.872" gradientTransform="matrix(1.5979369,0,0,1.5989675,-28.642265,-30.329616)" gradientUnits="userSpaceOnUse" xlink:href="#linearGradient3724"/><linearGradient id="linearGradient3086" x1="32.238" x2="36.821" y1="21.65" y2="47.535" gradientTransform="matrix(1.5979369,0,0,1.5989675,-28.642265,-30.329616)" gradientUnits="userSpaceOnUse" xlink:href="#linearGradient3309"/><linearGradient id="linearGradient3088" x1="45.312" x2="42.662" y1="48.268" y2="45.618" gradientTransform="matrix(-1.5979369,0,0,-1.5989675,116.8988,115.3684)" gradientUnits="userSpaceOnUse" xlink:href="#linearGradient3932"/><linearGradient id="linearGradient3090" x1="5.274" x2="-6.524" y1="62.879" y2="66.807" gradientTransform="matrix(0.71912174,0,0,0.71912174,-1.1797082,-109.40725)" gradientUnits="userSpaceOnUse" xlink:href="#linearGradient5128"/><linearGradient id="linearGradient3092" x1="5.274" x2="-6.524" y1="62.879" y2="66.807" gradientTransform="matrix(1.5984522,0,0,1.5984522,1.1796962,-41.699039)" gradientUnits="userSpaceOnUse" xlink:href="#linearGradient5128"/><filter id="filter3898"><feGaussianBlur id="feGaussianBlur3900" stdDeviation="2.158"/></filter></defs><metadata id="metadata2413"/><g id="layer3" display="inline"><path id="path3104" fill="#1a1a1a" fill-opacity="1" stroke="none" d="m 27.035849,4.8476691 c -2.598194,0.0096 -5.174693,0.487945 -7.640134,1.399097 L 31.080628,17.889247 17.947583,31.030762 6.312606,19.338312 c -2.913876,7.89452 -1.243573,17.143747 5.093424,23.484835 6.349528,6.353624 15.569919,8.036498 23.469698,5.096709 l 6.69136,6.695676 c -1.451481,1.452423 -1.451481,3.794191 0,5.246614 l 19.624663,19.637317 1.298323,1.34913 6.541555,6.545773 c 5.080208,5.083483 13.296066,5.083483 18.376273,0 5.0802,-5.083478 5.0802,-13.304646 0,-18.388126 l -6.541554,-6.545774 -1.348259,-1.29916 -19.624662,-19.63732 c -0.72575,-0.726213 -1.699454,-1.099291 -2.646584,-1.099291 -0.947129,0 -1.870912,0.373078 -2.596648,1.099291 L 47.958836,34.82831 C 50.896733,26.923436 49.214946,17.697099 42.865412,11.343474 38.508726,6.9839756 32.751879,4.8266991 27.035849,4.8476691 z M 78.419508,73.603272 c 2.647541,0 4.793814,2.147646 4.793814,4.796902 0,2.649256 -2.146273,4.796902 -4.793814,4.796902 -2.647541,0 -4.793811,-2.147646 -4.793811,-4.796902 0,-2.649256 2.14627,-4.796902 4.793811,-4.796902 z" filter="url(#filter3898)" opacity="1"/><rect id="rect3705" width="18.532" height="23.496" x="-8.086" y="50.772" fill="url(#linearGradient3092)" fill-opacity="1" stroke="none" transform="matrix(0.70687879,-0.7073347,0.70687879,0.7073347,0,0)"/><rect id="rect3914" width="8.337" height="10.571" x="-5.348" y="-67.806" fill="url(#linearGradient3090)" fill-opacity="1" stroke="none" transform="matrix(-0.70687879,0.7073347,-0.70687879,-0.7073347,0,0)"/><path id="path3922" fill="url(#linearGradient3088)" fill-opacity="1" stroke="none" d="m 46.68284,31.977335 -13.215936,13.173986 8.005909,7.910121 13.31682,-12.92161 -8.106793,-8.162497 z" opacity=".4"/><path id="rect3907" fill="#000" fill-opacity="1" stroke="none" d="M 43.264895,28.532376 30.181786,41.623922 46.760383,58.263177 59.893427,45.121664 43.264895,28.532376 z m 0,2.298515 L 57.596392,45.121664 46.760383,55.964661 32.478822,41.623922 43.264895,30.830891 z" opacity=".2"/><path id="path3707" fill="url(#linearGradient3086)" fill-opacity="1" stroke="none" d="m 6.2952609,17.738957 c -2.913874,7.89452 -1.219779,17.131344 5.1172171,23.472433 8.681962,8.687557 22.758197,8.687557 31.440157,0 8.68196,-8.68756 8.68196,-22.772873 0,-31.460433 C 36.515638,3.4098691 27.284757,1.7147571 19.39534,4.6304421 L 31.062578,16.305214 17.962518,29.413727 6.2952609,17.738957 z"/><path id="path3709" fill="url(#linearGradient3084)" fill-opacity="1" stroke="none" d="m 57.246843,38.825728 c -0.947135,0 -1.870907,0.373077 -2.596648,1.099289 L 41.567088,53.016564 c -1.451481,1.452422 -1.451481,3.794191 0,5.246613 l 19.624663,19.63732 1.298323,1.349129 6.541555,6.545772 c 5.080204,5.083482 13.296066,5.083482 18.376273,0 5.0802,-5.083478 5.0802,-13.304645 0,-18.388125 L 80.866348,60.861499 79.518089,59.562338 59.893427,39.925017 C 59.167678,39.198805 58.19398,38.825728 57.246843,38.825728 z m 21.172665,33.178576 c 2.647548,0 4.793814,2.147647 4.793814,4.796902 0,2.649256 -2.146266,4.796903 -4.793814,4.796903 -2.647548,0 -4.793811,-2.147647 -4.793811,-4.796903 0,-2.649255 2.146263,-4.796902 4.793811,-4.796902 z"/><path id="path3846" fill="#f98d01" fill-opacity="1" stroke="none" d="m 88.206882,69.805724 c 0.38171,1.172521 0.59921,2.447592 0.59921,3.747579 0,6.63463 -5.35416,11.992257 -11.984521,11.992257 -4.05618,0 -7.663956,-2.014746 -9.837299,-5.096709 1.566453,4.811566 6.104032,8.294643 11.435236,8.294643 6.630354,0 11.984524,-5.357625 11.984524,-11.992256 0,-2.578893 -0.8149,-4.98831 -2.19715,-6.945514 z" opacity=".8"/><path id="path3717" fill="#d88100" fill-opacity="1" stroke="none" d="m 57.246843,38.825728 c -0.947135,0 -1.870907,0.373077 -2.596648,1.099289 L 41.567088,53.016564 c -1.451481,1.452422 -1.451481,3.794191 0,5.246613 l 19.624663,19.63732 1.298323,1.349129 6.541555,6.545772 c 5.080204,5.083482 13.296066,5.083482 18.376273,0 5.0802,-5.083478 5.0802,-13.304645 0,-18.388125 L 80.866348,60.861499 79.518089,59.562338 59.893427,39.925017 C 59.167678,39.198805 58.19398,38.825728 57.246843,38.825728 z m 0,2.148614 c 0.382097,0 0.842928,0.143922 1.148518,0.449709 L 78.020024,61.06137 a 2.1533125,2.1547013 0 0 0 0,0.04996 l 1.348258,1.299163 6.54156,6.495805 c 4.25947,4.262222 4.25947,11.127841 0,15.390061 -4.259478,4.262224 -11.120672,4.262224 -15.380148,0 l -6.491618,-6.545768 -1.298324,-1.349128 a 2.1533125,2.1547013 0 0 0 -0.04993,0 L 43.065154,56.764146 c -0.633247,-0.633659 -0.633247,-1.614892 0,-2.248549 L 56.148262,41.424051 c 0.340486,-0.34071 0.716485,-0.449709 1.098581,-0.449709 z"/><path id="path3803" fill="#d88100" fill-opacity="1" stroke="none" d="m 78.419508,70.405337 c -3.530065,0 -6.391747,2.863527 -6.391747,6.395869 0,3.532342 2.861682,6.39587 6.391747,6.39587 3.53006,0 6.391744,-2.863528 6.391744,-6.39587 0,-3.532342 -2.861684,-6.395869 -6.391744,-6.395869 z m 0,1.598967 c 2.647548,0 4.793814,2.147647 4.793814,4.796902 0,2.649256 -2.146266,4.796903 -4.793814,4.796903 -2.647548,0 -4.793811,-2.147647 -4.793811,-4.796903 0,-2.649255 2.146263,-4.796902 4.793811,-4.796902 z"/><path id="path3736" fill="url(#linearGradient3082)" fill-opacity="1" stroke="none" d="m 57.246843,40.924373 c -0.395412,0 -0.749015,0.149888 -1.098581,0.499678 L 43.065154,54.515597 c -0.65253,0.652954 -0.65253,1.595594 0,2.248549 l 19.624662,19.637318 a 2.1025639,2.10392 0 0 1 0,0.04996 l 1.298324,1.34913 6.541554,6.495805 c 4.278818,4.281581 11.101325,4.281581 15.380148,0 4.27882,-4.281575 4.27882,-11.108484 0,-15.390061 L 79.418218,62.360526 78.06996,61.061365 a 2.1025639,2.10392 0 0 1 -0.04993,0 L 58.395361,41.424051 c -0.315493,-0.315695 -0.753105,-0.499678 -1.148518,-0.499678 z m 0,2.598323 19.175243,19.137642 a 4.393981,4.396815 0 0 0 0.04993,0.04996 l 1.298324,1.249193 0.04993,0.04996 6.491612,6.495806 c 3.40546,3.407648 3.40546,8.784481 0,12.192126 -3.405445,3.407651 -8.778811,3.407651 -12.184262,0 L 65.636,76.201578 65.58607,76.151618 64.337682,74.852455 a 4.393981,4.396815 0 0 0 -0.04993,-0.04996 L 45.162446,55.614888 57.246843,43.522696 z" opacity=".6"/><path id="path3759" fill="url(#radialGradient3080)" fill-opacity="1" stroke="none" d="M 59.093925,53.889267 A 10.985409,10.985409 0 0 1 48.108517,64.874676 l 0,-10.985409 z" opacity=".6" transform="matrix(1.5649931,1.5660026,-1.1299121,1.1306409,42.802429,-92.736704)"/><path id="path3749" fill="none" stroke="url(#radialGradient3078)" stroke-dasharray="none" stroke-linecap="butt" stroke-linejoin="miter" stroke-miterlimit="4" stroke-opacity="1" stroke-width="2" d="M 46.194198,56.650539 57.180014,45.800403 75.960553,64.206574"/><path id="path3852" fill="url(#linearGradient3076)" fill-opacity="1" stroke="none" d="m 86.030712,72.404046 c -2.42693,-4.206258 -7.801983,-5.64743 -12.005531,-3.218945 -4.203547,2.428483 -5.64379,7.807008 -3.216871,12.013266 2.42692,4.206258 7.801977,5.647431 12.005522,3.218945 4.20355,-2.428485 5.6438,-7.807009 3.21688,-12.013266 z m -1.38386,0.799482 c 1.98566,3.441486 0.80727,7.842096 -2.631986,9.829037 -3.439266,1.986944 -7.83704,0.807801 -9.822701,-2.63368 -1.985661,-3.441485 -0.80728,-7.842096 2.631986,-9.829037 3.439265,-1.986943 7.837037,-0.807802 9.822701,2.63368 z"/><path id="path3889" fill="#4d4d4d" fill-opacity="1" stroke="none" d="m 20.594167,4.2480571 c -0.40065,0.12272 -0.803982,0.253956 -1.198452,0.39974 L 31.004077,16.264156 31.803045,15.464672 20.594167,4.2480571 z m 25.666861,9.9435779 c 3.098759,7.97188 1.438707,17.398203 -4.993554,23.834609 -8.681959,8.687559 -22.777422,8.687559 -31.4593821,0 -1.285632,-1.286464 -2.342079,-2.707842 -3.245809,-4.197288 1.082543,2.680489 2.673638,5.223713 4.8437471,7.395223 8.68196,8.687558 22.777421,8.687558 31.459382,0 7.325405,-7.330127 8.43183,-18.50156 3.395616,-27.032544 z" opacity=".4"/><path id="path3897" fill="#fff" fill-opacity="1" stroke="none" d="M 31.779725,15.519349 17.947583,29.431793 6.3126059,17.739344 c -1.001735,2.713982 -1.437132,5.585475 -1.34826,8.444547 0.09213,-2.329673 0.531761,-4.633453 1.34826,-6.845579 l 11.6349771,11.69245 14.63111,-14.711929 -0.798968,-0.799484 z" opacity=".5"/></g></svg>