<svg xmlns="http://www.w3.org/2000/svg" xmlns:svg="http://www.w3.org/2000/svg" xmlns:xlink="http://www.w3.org/1999/xlink" id="svg2408" width="96" height="96" display="inline" version="1.0"><defs id="defs2410"><linearGradient id="linearGradient3690"><stop id="stop3692" offset="0" stop-color="#000" stop-opacity=".392"/><stop id="stop3694" offset="1" stop-color="#000" stop-opacity=".235"/></linearGradient><linearGradient id="linearGradient3778"><stop id="stop3780" offset="0" stop-color="#98b5e3" stop-opacity="1"/><stop id="stop3782" offset="1" stop-color="#bed1ed" stop-opacity="1"/></linearGradient><linearGradient id="linearGradient3737"><stop id="stop3739" offset="0" stop-color="#fff" stop-opacity="1"/><stop id="stop3741" offset="1" stop-color="#fff" stop-opacity="0"/></linearGradient><radialGradient id="radialGradient2842" cx="40.637" cy="55.726" r="14" fx="40.637" fy="55.726" gradientTransform="matrix(-8.5141987e-7,-6.9559886,9.3715149,-1.0776426e-6,-435.73414,377.73216)" gradientUnits="userSpaceOnUse" xlink:href="#linearGradient3690"/><linearGradient id="linearGradient3666" x1="26.607" x2="26.607" y1="25.706" y2="42.885" gradientTransform="matrix(3.336909,0,0,3.2268929,-42.096544,-87.530001)" gradientUnits="userSpaceOnUse" xlink:href="#linearGradient3737"/><linearGradient id="linearGradient3670" x1="24.334" x2="24.334" y1="55.89" y2="28.22" gradientTransform="matrix(3.336909,0,0,3.2268929,-42.096544,-183.529)" gradientUnits="userSpaceOnUse" xlink:href="#linearGradient3778"/></defs><metadata id="metadata2413"/><g id="layer3"><rect id="rect3702" width="79.059" height="96" x="8.471" y="0" fill="url(#radialGradient2842)" fill-opacity="1" stroke="none" rx="2.471" ry="2.5"/><rect id="rect3766" width="73.412" height="90.353" x="11.294" y="-93.176" fill="url(#linearGradient3670)" fill-opacity="1" stroke="none" transform="scale(1,-1)"/><path id="rect3708" fill="#7fa0d5" fill-opacity="1" stroke="none" d="m 11.294,2.823 0,90.353 73.411997,0 0,-90.353 -3.336909,0 0,87.126108 -66.738178,0 0,-87.126108 -3.33691,0 z"/><path id="path3798" fill="#4d74ad" fill-opacity="1" stroke="none" d="m 47.999901,11.200695 c -7.564579,0 -13.696837,5.673316 -13.696837,12.671711 0.01936,0.802029 0.02904,1.717779 0.114228,2.715366 -1.197176,0.632597 -1.353197,3.106472 -0.285257,5.60044 0.411751,0.961689 0.97336,1.743091 1.540874,2.375943 0.01936,0.0213 0.03808,0.03589 0.05712,0.0565 0.13553,0.658938 0.235564,1.180113 0.39949,1.923387 0.507526,1.509215 2.604716,4.348019 4.451499,6.788415 0.184255,1.882594 0.199422,3.741881 -0.171349,5.883296 -5.315661,4.37151 -18.910624,6.335856 -18.890263,10.861463 l -1.826227,11.76659 c 0,2.41076 3.633159,4.618073 9.416589,6.109569 l 0.798979,3.224502 a 1.9889643,1.9715363 0 0 0 1.255551,1.301113 c 0.256861,0.09846 0.437858,0.306651 1.141385,0.509129 3.706054,1.066523 9.349148,1.810236 15.694317,1.810236 6.345167,0 12.045313,-0.743713 15.751367,-1.810236 0.703559,-0.202488 0.884717,-0.410719 1.141417,-0.509129 a 1.9889643,1.9715363 0 0 0 1.198468,-1.244545 l 0.970197,-3.394208 c 5.642126,-1.489139 9.245371,-3.619622 9.245371,-5.996431 L 74.480559,60.077227 c -0.02259,-3.873319 -13.696838,-6.335855 -18.947315,-10.861475 -0.212652,-1.733561 -0.222333,-3.440407 -0.114229,-5.147869 1.679082,-2.567358 3.889632,-5.853041 4.451499,-7.523833 0.206521,-0.865256 0.296229,-1.463254 0.456541,-2.206236 0.495845,-0.600722 0.94661,-1.294833 1.312603,-2.149663 1.014084,-2.368385 0.919406,-4.661753 -0.114229,-5.430734 0.07229,-1.029085 0.141016,-2.00555 0.171349,-2.885075 3.2e-5,-6.998392 -6.132259,-12.671708 -13.696806,-12.671708 z" display="inline" enable-background="new"/><path id="rect3786" fill="url(#linearGradient3666)" fill-opacity="1" stroke="none" d="m 11.294,2.823 0,43.865575 C 32.531958,39.65552 57.462338,34.470409 84.705997,31.865036 l 0,-29.042036 -73.411997,0 z" opacity=".7"/></g></svg>