<svg xmlns="http://www.w3.org/2000/svg" xmlns:svg="http://www.w3.org/2000/svg" id="svg2" width="2232.28" height="1240.16" version="1.1" viewBox="59 38 1241.998 682.001"><title id="title3028">TBX termEntry Structure</title><metadata id="metadata220"/><rect id="rect2919" width="1241.998" height="690.001" x="59" y="34" fill="#fff" fill-opacity="1" fill-rule="nonzero" stroke="none" stroke-width="0" color="#000" display="inline" enable-background="accumulate" opacity="1" overflow="visible" visibility="visible" style="marker:none"/><g id="g4" transform="translate(0,0.00140725)"><rect id="rect6" width="97.3" height="36" x="100" y="260" fill="#fff"/><rect id="rect8" width="97.3" height="36" x="100" y="260" fill="none" stroke="#000" stroke-width="2"/><text id="text10" x="148.65" y="282" fill="#000" font-family="monospace" font-size="12.8" font-style="normal" font-weight="normal" text-anchor="middle">termEntry</text></g><g id="g12" transform="translate(0,0.00140725)"><rect id="rect14" width="158.9" height="36" x="320" y="460" fill="#fff"/><rect id="rect16" width="158.9" height="36" x="320" y="460" fill="none" stroke="#000" stroke-width="2"/><text id="text18" x="399.45" y="482" fill="#000" font-family="monospace" font-size="12.8" font-style="normal" font-weight="normal" text-anchor="middle">langSet (several)</text></g><g id="g20" transform="translate(0,0.00140725)"><rect id="rect22" width="128.1" height="36" x="660" y="540" fill="#fff"/><rect id="rect24" width="128.1" height="36" x="660" y="540" fill="none" stroke="#000" stroke-width="2"/><text id="text26" x="724.05" y="562" fill="#000" font-family="monospace" font-size="12.8" font-style="normal" font-weight="normal" text-anchor="middle">tig (several)</text></g><g id="g28" transform="translate(0,0.00140725)"><rect id="rect30" width="105" height="36" x="660" y="340" fill="#fff"/><rect id="rect32" width="105" height="36" x="660" y="340" fill="none" stroke="#000" stroke-width="2"/><text id="text34" x="712.5" y="362" fill="#000" font-family="monospace" font-size="12.8" font-style="normal" font-weight="normal" text-anchor="middle">definition</text></g><g id="g36" transform="translate(0,0.00140725)"><rect id="rect38" width="120.4" height="36" x="1020" y="140" fill="#fff"/><rect id="rect40" width="120.4" height="36" x="1020" y="140" fill="none" stroke="#000" stroke-width="2"/><text id="text42" x="1080.2" y="162" fill="#000" font-family="monospace" font-size="12.8" font-style="normal" font-weight="normal" text-anchor="middle">partOfSpeech</text></g><g id="g44" transform="translate(0,0.00140725)"><rect id="rect46" width="205.1" height="36" x="1020" y="80" fill="#fff"/><rect id="rect48" width="205.1" height="36" x="1020" y="80" fill="none" stroke="#000" stroke-width="2"/><text id="text50" x="1122.55" y="102" fill="#000" font-family="monospace" font-size="12.8" font-style="normal" font-weight="normal" text-anchor="middle">term (translation text)</text></g><g id="g52" transform="translate(0,0.00140725)"><rect id="rect54" width="158.9" height="36" x="1020" y="200" fill="#fff"/><rect id="rect56" width="158.9" height="36" x="1020" y="200" fill="none" stroke="#000" stroke-width="2"/><text id="text58" x="1099.45" y="222" fill="#000" font-family="monospace" font-size="12.8" font-style="normal" font-weight="normal" text-anchor="middle">grammaticalGender</text></g><polyline id="polyline60" fill="none" stroke="#000" stroke-width="2" points="197.3 278 260 278 260 478 320 478" transform="translate(0,0.00140725)"/><polyline id="polyline62" fill="none" stroke="#000" stroke-width="2" points="197.3 278 260 278 260 98 320 98" transform="translate(0,0.00140725)"/><polyline id="polyline64" fill="none" stroke="#000" stroke-width="2" points="478.9 478 600 478 600 358 660 358" transform="translate(0,0.00140725)"/><polyline id="polyline66" fill="none" stroke="#000" stroke-width="2" points="478.9 478 600 478 600 558 660 558" transform="translate(0,0.00140725)"/><polyline id="polyline68" fill="none" stroke="#000" stroke-width="2" points="788.1 558 940 558 940 98 1020 98" transform="translate(0,0.00140725)"/><polyline id="polyline70" fill="none" stroke="#000" stroke-width="2" points="788.1 558 940 558 940 218 1020 218" transform="translate(0,0.00140725)"/><polyline id="polyline72" fill="none" stroke="#000" stroke-width="2" points="788.1 558 940 558 940 158 1020 158" transform="translate(0,0.00140725)"/><polyline id="polyline78" fill="none" stroke="#000" stroke-dasharray="4" stroke-width="2" points="700 60 700 60 80 60 80 700 560 700 560 60 560 60" transform="translate(0,0.00140725)"/><polyline id="polyline80" fill="none" stroke="#000" stroke-dasharray="4" stroke-width="2" points="700 60 700 60 900 60 900 700 560 700 560 700" transform="translate(0,0.00140725)"/><polyline id="polyline82" fill="none" stroke="#000" stroke-dasharray="4" stroke-width="2" points="880 60 880 60 1280 60 1280 700 900 700 900 700" transform="translate(0,0.00140725)"/><line id="line84" x1="60" x2="80" y1="720.001" y2="720.001" fill="none" stroke="#fff" stroke-width="2"/><line id="line86" x1="60" x2="80" y1="40.001" y2="40.001" fill="none" stroke="#fff" stroke-width="2"/><line id="line88" x1="1280" x2="1300" y1="40.001" y2="40.001" fill="none" stroke="#fff" stroke-width="2"/><line id="line90" x1="1280" x2="1300" y1="720.001" y2="720.001" fill="none" stroke="#fff" stroke-width="2"/><g id="g92" transform="translate(0,0.00140725)"><rect id="rect94" width="128.1" height="36" x="320" y="80" fill="#fff"/><rect id="rect96" width="128.1" height="36" x="320" y="80" fill="none" stroke="#000" stroke-width="2"/><text id="text98" x="384.05" y="102" fill="#000" font-family="monospace" font-size="12.8" font-style="normal" font-weight="normal" text-anchor="middle">subject field</text></g><g id="g100" transform="translate(0,0.00140725)"><rect id="rect102" width="220.5" height="36" x="320" y="200" fill="#fff"/><rect id="rect104" width="220.5" height="36" x="320" y="200" fill="none" stroke="#000" stroke-width="2"/><text id="text106" x="430.25" y="222" fill="#000" font-family="monospace" font-size="12.8" font-style="normal" font-weight="normal" text-anchor="middle">cross reference (several)</text></g><g id="g108" transform="translate(0,0.00140725)"><rect id="rect110" width="143.5" height="36" x="320" y="140" fill="#fff"/><rect id="rect112" width="143.5" height="36" x="320" y="140" fill="none" stroke="#000" stroke-width="2"/><text id="text114" x="391.75" y="162" fill="#000" font-family="monospace" font-size="12.8" font-style="normal" font-weight="normal" text-anchor="middle">broader concept</text></g><g id="g116" transform="translate(0,0.00140725)"><rect id="rect118" width="205.1" height="36" x="660" y="400" fill="#fff"/><rect id="rect120" width="205.1" height="36" x="660" y="400" fill="none" stroke="#000" stroke-width="2"/><text id="text122" x="762.55" y="422" fill="#000" font-family="monospace" font-size="12.8" font-style="normal" font-weight="normal" text-anchor="middle">external link (several)</text></g><g id="g124" transform="translate(0,0.00140725)"><rect id="rect126" width="158.9" height="36" x="1020" y="260" fill="#fff"/><rect id="rect128" width="158.9" height="36" x="1020" y="260" fill="none" stroke="#000" stroke-width="2"/><text id="text130" x="1099.45" y="282" fill="#000" font-family="monospace" font-size="12.8" font-style="normal" font-weight="normal" text-anchor="middle">grammaticalNumber</text></g><g id="g132" transform="translate(0,0.00140725)"><rect id="rect134" width="89.6" height="36" x="1020" y="320" fill="#fff"/><rect id="rect136" width="89.6" height="36" x="1020" y="320" fill="none" stroke="#000" stroke-width="2"/><text id="text138" x="1064.8" y="342" fill="#000" font-family="monospace" font-size="12.8" font-style="normal" font-weight="normal" text-anchor="middle">termType</text></g><g id="g140" transform="translate(0,0.00140725)"><rect id="rect142" width="97.3" height="36" x="1020" y="380" fill="#fff"/><rect id="rect144" width="97.3" height="36" x="1020" y="380" fill="none" stroke="#000" stroke-width="2"/><text id="text146" x="1068.65" y="402" fill="#000" font-family="monospace" font-size="12.8" font-style="normal" font-weight="normal" text-anchor="middle">usageNote</text></g><g id="g148" transform="translate(0,0.00140725)"><rect id="rect150" width="81.9" height="36" x="1020" y="560" fill="#fff"/><rect id="rect152" width="81.9" height="36" x="1020" y="560" fill="none" stroke="#000" stroke-width="2"/><text id="text154" x="1060.95" y="582" fill="#000" font-family="monospace" font-size="12.8" font-style="normal" font-weight="normal" text-anchor="middle">context</text></g><g id="g156" transform="translate(0,0.00140725)"><rect id="rect158" width="112.7" height="36" x="1020" y="620" fill="#fff"/><rect id="rect160" width="112.7" height="36" x="1020" y="620" fill="none" stroke="#000" stroke-width="2"/><text id="text162" x="1076.35" y="642" fill="#000" font-family="monospace" font-size="12.8" font-style="normal" font-weight="normal" text-anchor="middle">corpusTrace</text></g><g id="g164" transform="translate(0,0.00140725)"><rect id="rect166" width="128.1" height="36" x="1020" y="440" fill="#fff"/><rect id="rect168" width="128.1" height="36" x="1020" y="440" fill="none" stroke="#000" stroke-width="2"/><text id="text170" x="1084.05" y="462" fill="#000" font-family="monospace" font-size="12.8" font-style="normal" font-weight="normal" text-anchor="middle">processStatus</text></g><g id="g172" transform="translate(0,0.00140725)"><rect id="rect174" width="182" height="36" x="1020" y="500" fill="#fff"/><rect id="rect176" width="182" height="36" x="1020" y="500" fill="none" stroke="#000" stroke-width="2"/><text id="text178" x="1111" y="522" fill="#000" font-family="monospace" font-size="12.8" font-style="normal" font-weight="normal" text-anchor="middle">administrativeStatus</text></g><polyline id="polyline180" fill="none" stroke="#000" stroke-width="2" points="197.3 278 260 278 260 158 320 158" transform="translate(0,0.00140725)"/><polyline id="polyline182" fill="none" stroke="#000" stroke-width="2" points="197.3 278 260 278 260 218 320 218" transform="translate(0,0.00140725)"/><polyline id="polyline184" fill="none" stroke="#000" stroke-width="2" points="478.9 478 600 478 600 418 660 418" transform="translate(0,0.00140725)"/><polyline id="polyline186" fill="none" stroke="#000" stroke-width="2" points="789.056 558 940 558 940 278 1020 278" transform="translate(0,0.00140725)"/><polyline id="polyline188" fill="none" stroke="#000" stroke-width="2" points="788.1 558 940 558 940 338 1020 338" transform="translate(0,0.00140725)"/><polyline id="polyline190" fill="none" stroke="#000" stroke-width="2" points="788.1 558 940 558 940 398 1020 398" transform="translate(0,0.00140725)"/><polyline id="polyline192" fill="none" stroke="#000" stroke-width="2" points="788.1 558 940 558 940 578 1020 578" transform="translate(0,0.00140725)"/><polyline id="polyline194" fill="none" stroke="#000" stroke-width="2" points="788.1 558 940 558 940 638 1020 638" transform="translate(0,0.00140725)"/><polyline id="polyline196" fill="none" stroke="#000" stroke-width="2" points="788.1 558 940 558 940 458 1020 458" transform="translate(0,0.00140725)"/><polyline id="polyline198" fill="none" stroke="#000" stroke-width="2" points="789.056 558 940 558 940 518 1020 518" transform="translate(0,0.00140725)"/><text id="text200" x="240" y="680.001" fill="#000" font-family="sanserif" font-size="16.933" font-style="normal" font-weight="700" text-anchor="start"><tspan id="tspan202" x="240" y="680.001">Concept level</tspan></text><text id="text204" x="640" y="680.001" fill="#000" font-family="sanserif" font-size="16.933" font-style="normal" font-weight="700" text-anchor="start"><tspan id="tspan206" x="640" y="680.001">Language level</tspan></text><text id="text208" x="1000" y="680.001" fill="#000" font-family="sanserif" font-size="16.933" font-style="normal" font-weight="700" text-anchor="start"><tspan id="tspan210" x="1000" y="680.001">Translation level</tspan></text></svg>